<?xml version="1.0" encoding="us-ascii" standalone="no"?><svg xmlns="http://www.w3.org/2000/svg" xmlns:xlink="http://www.w3.org/1999/xlink" contentStyleType="text/css" height="342px" preserveAspectRatio="none" style="width:817px;height:342px;" version="1.1" viewBox="0 0 817 342" width="817px" zoomAndPan="magnify"><defs/><g><line style="stroke:#FFFFFF;stroke-width:0.5;stroke-dasharray:5.0,5.0;" x1="40" x2="40" y1="81.4883" y2="261.041"/><line style="stroke:#FFFFFF;stroke-width:0.5;stroke-dasharray:5.0,5.0;" x1="373" x2="373" y1="81.4883" y2="261.041"/><line style="stroke:#FFFFFF;stroke-width:0.5;stroke-dasharray:5.0,5.0;" x1="590.5" x2="590.5" y1="81.4883" y2="261.041"/><line style="stroke:#FFFFFF;stroke-width:0.5;stroke-dasharray:5.0,5.0;" x1="756.5" x2="756.5" y1="81.4883" y2="261.041"/><text fill="#FFFFFF" font-family="sans-serif" font-size="14" lengthAdjust="spacing" textLength="64" x="5" y="78.5352">Publisher</text><ellipse cx="40" cy="13.5" fill="none" rx="8" ry="8" style="stroke:#FFFFFF;stroke-width:0.5;"/><path d="M40,21.5 L40,48.5 M27,29.5 L53,29.5 M40,48.5 L27,63.5 M40,48.5 L53,63.5 " fill="none" style="stroke:#FFFFFF;stroke-width:0.5;"/><text fill="#FFFFFF" font-family="sans-serif" font-size="14" lengthAdjust="spacing" textLength="64" x="5" y="273.5762">Publisher</text><ellipse cx="40" cy="285.0293" fill="none" rx="8" ry="8" style="stroke:#FFFFFF;stroke-width:0.5;"/><path d="M40,293.0293 L40,320.0293 M27,301.0293 L53,301.0293 M40,320.0293 L27,335.0293 M40,320.0293 L53,335.0293 " fill="none" style="stroke:#FFFFFF;stroke-width:0.5;"/><rect fill="none" height="30.4883" rx="2.5" ry="2.5" style="stroke:#FFFFFF;stroke-width:0.5;" width="132" x="307" y="50"/><text fill="#FFFFFF" font-family="sans-serif" font-size="14" lengthAdjust="spacing" textLength="118" x="314" y="70.5352">Mosquitto Broker</text><rect fill="none" height="30.4883" rx="2.5" ry="2.5" style="stroke:#FFFFFF;stroke-width:0.5;" width="132" x="307" y="260.041"/><text fill="#FFFFFF" font-family="sans-serif" font-size="14" lengthAdjust="spacing" textLength="118" x="314" y="280.5762">Mosquitto Broker</text><text fill="#FFFFFF" font-family="sans-serif" font-size="14" lengthAdjust="spacing" textLength="73" x="551.5" y="78.5352">Subscriber</text><ellipse cx="591" cy="13.5" fill="none" rx="8" ry="8" style="stroke:#FFFFFF;stroke-width:0.5;"/><path d="M591,21.5 L591,48.5 M578,29.5 L604,29.5 M591,48.5 L578,63.5 M591,48.5 L604,63.5 " fill="none" style="stroke:#FFFFFF;stroke-width:0.5;"/><text fill="#FFFFFF" font-family="sans-serif" font-size="14" lengthAdjust="spacing" textLength="73" x="551.5" y="273.5762">Subscriber</text><ellipse cx="591" cy="285.0293" fill="none" rx="8" ry="8" style="stroke:#FFFFFF;stroke-width:0.5;"/><path d="M591,293.0293 L591,320.0293 M578,301.0293 L604,301.0293 M591,320.0293 L578,335.0293 M591,320.0293 L604,335.0293 " fill="none" style="stroke:#FFFFFF;stroke-width:0.5;"/><text fill="#FFFFFF" font-family="sans-serif" font-size="14" lengthAdjust="spacing" textLength="113" x="697.5" y="78.5352">IBM Cloudant DB</text><path d="M739,29 C739,19 757,19 757,19 C757,19 775,19 775,29 L775,55 C775,65 757,65 757,65 C757,65 739,65 739,55 L739,29 " fill="none" style="stroke:#FFFFFF;stroke-width:1.5;"/><path d="M739,29 C739,39 757,39 757,39 C757,39 775,39 775,29 " fill="none" style="stroke:#FFFFFF;stroke-width:1.5;"/><text fill="#FFFFFF" font-family="sans-serif" font-size="14" lengthAdjust="spacing" textLength="113" x="697.5" y="273.5762">IBM Cloudant DB</text><path d="M739,286.5293 C739,276.5293 757,276.5293 757,276.5293 C757,276.5293 775,276.5293 775,286.5293 L775,312.5293 C775,322.5293 757,322.5293 757,322.5293 C757,322.5293 739,322.5293 739,312.5293 L739,286.5293 " fill="none" style="stroke:#FFFFFF;stroke-width:1.5;"/><path d="M739,286.5293 C739,296.5293 757,296.5293 757,296.5293 C757,296.5293 775,296.5293 775,286.5293 " fill="none" style="stroke:#FFFFFF;stroke-width:1.5;"/><polygon fill="#FFFFFF" points="361,108.7988,371,112.7988,361,116.7988,365,112.7988" style="stroke:#FFFFFF;stroke-width:1.0;"/><line style="stroke:#FFFFFF;stroke-width:1.0;" x1="40" x2="367" y1="112.7988" y2="112.7988"/><text fill="#FFFFFF" font-family="sans-serif" font-size="13" lengthAdjust="spacing" textLength="309" x="47" y="108.0566">Publish msg (MQTT/1883 and websockets/8083)</text><polygon fill="#FFFFFF" points="579,138.1094,589,142.1094,579,146.1094,583,142.1094" style="stroke:#FFFFFF;stroke-width:1.0;"/><line style="stroke:#FFFFFF;stroke-width:1.0;" x1="373" x2="585" y1="142.1094" y2="142.1094"/><text fill="#FFFFFF" font-family="sans-serif" font-size="13" lengthAdjust="spacing" textLength="194" x="380" y="137.3672">Push msg(Subscribed to Topic)</text><line style="stroke:#FFFFFF;stroke-width:1.0;" x1="591" x2="633" y1="171.4199" y2="171.4199"/><line style="stroke:#FFFFFF;stroke-width:1.0;" x1="633" x2="633" y1="171.4199" y2="184.4199"/><line style="stroke:#FFFFFF;stroke-width:1.0;" x1="592" x2="633" y1="184.4199" y2="184.4199"/><polygon fill="#FFFFFF" points="602,180.4199,592,184.4199,602,188.4199,598,184.4199" style="stroke:#FFFFFF;stroke-width:1.0;"/><text fill="#FFFFFF" font-family="sans-serif" font-size="13" lengthAdjust="spacing" textLength="152" x="598" y="166.6777">Process and handle msg</text><polygon fill="#FFFFFF" points="745,209.7305,755,213.7305,745,217.7305,749,213.7305" style="stroke:#FFFFFF;stroke-width:1.0;"/><line style="stroke:#FFFFFF;stroke-width:1.0;" x1="591" x2="751" y1="213.7305" y2="213.7305"/><text fill="#FFFFFF" font-family="sans-serif" font-size="13" lengthAdjust="spacing" textLength="100" x="598" y="208.9883">Store msg in DB</text><polygon fill="#FFFFFF" points="602,239.041,592,243.041,602,247.041,598,243.041" style="stroke:#FFFFFF;stroke-width:1.0;"/><line style="stroke:#FFFFFF;stroke-width:1.0;" x1="596" x2="756" y1="243.041" y2="243.041"/><text fill="#FFFFFF" font-family="sans-serif" font-size="13" lengthAdjust="spacing" textLength="135" x="608" y="238.2988">Acknowledge storage</text><!--SRC=[ZP31Ri8m44Jl_eeL9pXKjE8ISQX4G9KgbOeAVi2njy5Ay8Qre_n-7KW20k5oI9HuP-Rjs1N6LfBb0JAfYfofjdf99J5ubjQ54LeltA3w8ElFysPlF5vDlidZu-c2cPh8AE9KdZWbriWHmN_-fyfj97kZJ2MjZm6lP8-nrrbFmLVIoqmwZ95xpMFiaF8KSul76gt2B_CR7XjbtsaZ127RIuTDdPN6xP55TRaD6At97MlZFK7AL22FGBhkipDkwymfDbauq5qX67scQrYMLEisP9MUNFs_40CBNjwxi7c_01nS3kFrpsutVKkI6KYheS7CaIhGksdocimcuknftHTwct2sZuT33M7n7LL6JSH5UUTZKkZS2RKFhnBRb1j3l_qSjg7rIG76XcvYw7aJkr25fQP4dIEuu94v_W40]--></g></svg>