<?xml version="1.0" encoding="us-ascii" standalone="no"?><svg xmlns="http://www.w3.org/2000/svg" xmlns:xlink="http://www.w3.org/1999/xlink" contentStyleType="text/css" height="342px" preserveAspectRatio="none" style="width:821px;height:342px;" version="1.1" viewBox="0 0 821 342" width="821px" zoomAndPan="magnify"><defs/><g><line style="stroke:#000000;stroke-width:0.5;stroke-dasharray:5.0,5.0;" x1="40" x2="40" y1="81.4883" y2="261.041"/><line style="stroke:#000000;stroke-width:0.5;stroke-dasharray:5.0,5.0;" x1="373" x2="373" y1="81.4883" y2="261.041"/><line style="stroke:#000000;stroke-width:0.5;stroke-dasharray:5.0,5.0;" x1="594.5" x2="594.5" y1="81.4883" y2="261.041"/><line style="stroke:#000000;stroke-width:0.5;stroke-dasharray:5.0,5.0;" x1="760.5" x2="760.5" y1="81.4883" y2="261.041"/><text fill="#000000" font-family="sans-serif" font-size="14" lengthAdjust="spacing" textLength="64" x="5" y="78.5352">Publisher</text><ellipse cx="40" cy="13.5" fill="none" rx="8" ry="8" style="stroke:#000000;stroke-width:0.5;"/><path d="M40,21.5 L40,48.5 M27,29.5 L53,29.5 M40,48.5 L27,63.5 M40,48.5 L53,63.5 " fill="none" style="stroke:#000000;stroke-width:0.5;"/><text fill="#000000" font-family="sans-serif" font-size="14" lengthAdjust="spacing" textLength="64" x="5" y="273.5762">Publisher</text><ellipse cx="40" cy="285.0293" fill="none" rx="8" ry="8" style="stroke:#000000;stroke-width:0.5;"/><path d="M40,293.0293 L40,320.0293 M27,301.0293 L53,301.0293 M40,320.0293 L27,335.0293 M40,320.0293 L53,335.0293 " fill="none" style="stroke:#000000;stroke-width:0.5;"/><rect fill="none" height="30.4883" rx="2.5" ry="2.5" style="stroke:#000000;stroke-width:0.5;" width="132" x="307" y="50"/><text fill="#000000" font-family="sans-serif" font-size="14" lengthAdjust="spacing" textLength="118" x="314" y="70.5352">Mosquitto Broker</text><rect fill="none" height="30.4883" rx="2.5" ry="2.5" style="stroke:#000000;stroke-width:0.5;" width="132" x="307" y="260.041"/><text fill="#000000" font-family="sans-serif" font-size="14" lengthAdjust="spacing" textLength="118" x="314" y="280.5762">Mosquitto Broker</text><text fill="#000000" font-family="sans-serif" font-size="14" lengthAdjust="spacing" textLength="73" x="555.5" y="78.5352">Subscriber</text><ellipse cx="595" cy="13.5" fill="none" rx="8" ry="8" style="stroke:#000000;stroke-width:0.5;"/><path d="M595,21.5 L595,48.5 M582,29.5 L608,29.5 M595,48.5 L582,63.5 M595,48.5 L608,63.5 " fill="none" style="stroke:#000000;stroke-width:0.5;"/><text fill="#000000" font-family="sans-serif" font-size="14" lengthAdjust="spacing" textLength="73" x="555.5" y="273.5762">Subscriber</text><ellipse cx="595" cy="285.0293" fill="none" rx="8" ry="8" style="stroke:#000000;stroke-width:0.5;"/><path d="M595,293.0293 L595,320.0293 M582,301.0293 L608,301.0293 M595,320.0293 L582,335.0293 M595,320.0293 L608,335.0293 " fill="none" style="stroke:#000000;stroke-width:0.5;"/><text fill="#000000" font-family="sans-serif" font-size="14" lengthAdjust="spacing" textLength="113" x="701.5" y="78.5352">IBM Cloudant DB</text><path d="M743,29 C743,19 761,19 761,19 C761,19 779,19 779,29 L779,55 C779,65 761,65 761,65 C761,65 743,65 743,55 L743,29 " fill="none" style="stroke:#000000;stroke-width:1.5;"/><path d="M743,29 C743,39 761,39 761,39 C761,39 779,39 779,29 " fill="none" style="stroke:#000000;stroke-width:1.5;"/><text fill="#000000" font-family="sans-serif" font-size="14" lengthAdjust="spacing" textLength="113" x="701.5" y="273.5762">IBM Cloudant DB</text><path d="M743,286.5293 C743,276.5293 761,276.5293 761,276.5293 C761,276.5293 779,276.5293 779,286.5293 L779,312.5293 C779,322.5293 761,322.5293 761,322.5293 C761,322.5293 743,322.5293 743,312.5293 L743,286.5293 " fill="none" style="stroke:#000000;stroke-width:1.5;"/><path d="M743,286.5293 C743,296.5293 761,296.5293 761,296.5293 C761,296.5293 779,296.5293 779,286.5293 " fill="none" style="stroke:#000000;stroke-width:1.5;"/><polygon fill="#000000" points="361,108.7988,371,112.7988,361,116.7988,365,112.7988" style="stroke:#000000;stroke-width:1.0;"/><line style="stroke:#000000;stroke-width:1.0;" x1="40" x2="367" y1="112.7988" y2="112.7988"/><text fill="#000000" font-family="sans-serif" font-size="13" lengthAdjust="spacing" textLength="309" x="47" y="108.0566">Publish msg (MQTT/1883 and websockets/8083)</text><polygon fill="#000000" points="583,138.1094,593,142.1094,583,146.1094,587,142.1094" style="stroke:#000000;stroke-width:1.0;"/><line style="stroke:#000000;stroke-width:1.0;" x1="373" x2="589" y1="142.1094" y2="142.1094"/><text fill="#000000" font-family="sans-serif" font-size="13" lengthAdjust="spacing" textLength="198" x="380" y="137.3672">Push msg (Subscribed to Topic)</text><line style="stroke:#000000;stroke-width:1.0;" x1="595" x2="637" y1="171.4199" y2="171.4199"/><line style="stroke:#000000;stroke-width:1.0;" x1="637" x2="637" y1="171.4199" y2="184.4199"/><line style="stroke:#000000;stroke-width:1.0;" x1="596" x2="637" y1="184.4199" y2="184.4199"/><polygon fill="#000000" points="606,180.4199,596,184.4199,606,188.4199,602,184.4199" style="stroke:#000000;stroke-width:1.0;"/><text fill="#000000" font-family="sans-serif" font-size="13" lengthAdjust="spacing" textLength="152" x="602" y="166.6777">Process and handle msg</text><polygon fill="#000000" points="749,209.7305,759,213.7305,749,217.7305,753,213.7305" style="stroke:#000000;stroke-width:1.0;"/><line style="stroke:#000000;stroke-width:1.0;" x1="595" x2="755" y1="213.7305" y2="213.7305"/><text fill="#000000" font-family="sans-serif" font-size="13" lengthAdjust="spacing" textLength="100" x="602" y="208.9883">Store msg in DB</text><polygon fill="#000000" points="606,239.041,596,243.041,606,247.041,602,243.041" style="stroke:#000000;stroke-width:1.0;"/><line style="stroke:#000000;stroke-width:1.0;" x1="600" x2="760" y1="243.041" y2="243.041"/><text fill="#000000" font-family="sans-serif" font-size="13" lengthAdjust="spacing" textLength="135" x="612" y="238.2988">Acknowledge storage</text><!--SRC=[ZP3DRi8m48JlVeeLftAesefBnA4I0LMgL2egU07_R8ELu0rhHxn-7KW20k5oI9HuP-RRiI-jgoNB7IYfouAfSMPE5J44bix74ReW_A3w81TESrL5myNacmBUdywOwP0O9Pmw4EV41ZaX-C__KBcLv62rhQKBAU25x3xsCkiX-486gQJ75BdNtCSEAGynrxXlq6dyih_nSKdsZJP14BAzT5Wrgh9-Yopgyst0Q4b-tzWG27Ac4da4qdUVdN7TAA_PgdXWka8m-ioNCA-eCMt88Z-w-dyX1XOyltTXqtu1sFa2dfO_cytBMvPDG3e31rIUT8d1lsIlsMGiJfxMVQQt2RrzE3KGDzzGRVLOdAKtHYQDtXzPs_Ygi8svClJhJs4TQnyLO5qi9uQYLx4pNJewL6WA11yzii0_]--></g></svg>